{
  "source": "C:\\Users\\Peter\\Desktop\\stuff\\MIUN\\quantitative_research\\video_compression\\videos\\HEVC_CLASS_B\\BQTerrace_1920x1080_60.y4m",
  "output": "C:\\Users\\Peter\\Desktop\\stuff\\MIUN\\quantitative_research\\video_compression\\compressed_videos\\HEVC_CLASS_B\\vp9\\2.5\\BQTerrace_1920x1080_60_vp9.webm",
  "codec": "vp9",
  "ok": "Input #0, yuv4mpegpipe, from 'C:\\Users\\Peter\\Desktop\\stuff\\MIUN\\quantitative_research\\video_compression\\videos\\HEVC_CLASS_B\\BQTerrace_1920x1080_60.y4m':\n  Duration: 00:00:10.00, start: 0.000000, bitrate: 1492994 kb/s\n  Stream #0:0: Video: rawvideo (I420 / 0x30323449), yuv420p(progressive), 1920x1080, 60 fps, 60 tbr, 60 tbn\n[out#0/webm @ 00000196963d9b80] Codec AVOption b:a (set bitrate (in bits/s)) has not been used for any stream. The most likely reason is either wrong type (e.g. a video option with no video streams) or that it is a private option of some decoder which was not actually used for any stream.\nStream mapping:\n  Stream #0:0 -> #0:0 (rawvideo (native) -> vp9 (libvpx-vp9))\nPress [q] to stop, [?] for help\n[libvpx-vp9 @ 00000196963dbfc0] v1.15.2-100-g40561f514\nOutput #0, webm, to 'C:\\Users\\Peter\\Desktop\\stuff\\MIUN\\quantitative_research\\video_compression\\compressed_videos\\HEVC_CLASS_B\\vp9\\2.5\\BQTerrace_1920x1080_60_vp9.webm':\n  Metadata:\n    encoder         : Lavf62.3.100\n  Stream #0:0: Video: vp9, yuv420p(tv, progressive), 1920x1080, q=2-31, 2500 kb/s, 60 fps, 1k tbn\n    Metadata:\n      encoder         : Lavc62.11.100 libvpx-vp9\n    Side data:\n      cpb: bitrate max/min/avg: 0/0/0 buffer size: 2500000 vbv_delay: N/A\nframe=    0 fps=0.0 q=0.0 size=       0KiB time=N/A bitrate=N/A speed=N/A elapsed=0:00:00.52    \nframe=    5 fps=4.3 q=48.0 size=       0KiB time=00:00:00.08 bitrate=  46.2kbits/s speed=0.0717x elapsed=0:00:01.16    \nframe=    9 fps=5.3 q=47.0 size=       0KiB time=00:00:00.13 bitrate=  28.9kbits/s speed=0.0783x elapsed=0:00:01.70    \nframe=   13 fps=5.7 q=40.0 size=       0KiB time=00:00:00.20 bitrate=  19.2kbits/s speed=0.0871x elapsed=0:00:02.29    \nframe=   16 fps=5.5 q=46.0 size=       0KiB time=00:00:00.26 bitrate=  14.4kbits/s speed=0.0915x elapsed=0:00:02.91    \nframe=   19 fps=5.5 q=47.0 size=       0KiB time=00:00:00.31 bitrate=  12.2kbits/s speed=0.0921x elapsed=0:00:03.43    \nframe=   22 fps=5.5 q=46.0 size=       0KiB time=00:00:00.36 bitrate=  10.5kbits/s speed=0.0922x elapsed=0:00:03.97    \nframe=   25 fps=5.5 q=38.0 size=       0KiB time=00:00:00.41 bitrate=   9.2kbits/s speed=0.0922x elapsed=0:00:04.51    \nframe=   28 fps=5.5 q=46.0 size=       0KiB time=00:00:00.46 bitrate=   8.2kbits/s speed=0.0922x elapsed=0:00:05.05    \nframe=   32 fps=5.7 q=47.0 size=       0KiB time=00:00:00.53 bitrate=   7.2kbits/s speed=0.0949x elapsed=0:00:05.61    \nframe=   35 fps=5.6 q=47.0 size=       0KiB time=00:00:00.58 bitrate=   6.6kbits/s speed=0.094x elapsed=0:00:06.20    \nframe=   37 fps=5.5 q=35.0 size=       0KiB time=00:00:00.61 bitrate=   6.2kbits/s speed=0.0916x elapsed=0:00:06.72    \nframe=   41 fps=5.7 q=46.0 size=       0KiB time=00:00:00.66 bitrate=   5.8kbits/s speed=0.092x elapsed=0:00:07.24    \nframe=   44 fps=5.7 q=47.0 size=       0KiB time=00:00:00.73 bitrate=   5.2kbits/s speed=0.0944x elapsed=0:00:07.76    \nframe=   47 fps=5.6 q=48.0 size=       0KiB time=00:00:00.78 bitrate=   4.9kbits/s speed=0.094x elapsed=0:00:08.32    \nframe=   50 fps=5.6 q=48.0 size=       0KiB time=00:00:00.81 bitrate=   4.7kbits/s speed=0.0919x elapsed=0:00:08.88    \nframe=   53 fps=5.6 q=46.0 size=       0KiB time=00:00:00.88 bitrate=   4.4kbits/s speed=0.0935x elapsed=0:00:09.44    \nframe=   57 fps=5.7 q=47.0 size=       0KiB time=00:00:00.95 bitrate=   4.1kbits/s speed=0.0942x elapsed=0:00:10.08    \nframe=   60 fps=5.6 q=47.0 size=       0KiB time=00:00:01.00 bitrate=   3.8kbits/s speed=0.094x elapsed=0:00:10.63    \nframe=   63 fps=5.6 q=45.0 size=       0KiB time=00:00:01.05 bitrate=   3.7kbits/s speed=0.0931x elapsed=0:00:11.27    \nframe=   66 fps=5.6 q=46.0 size=       0KiB time=00:00:01.10 bitrate=   3.5kbits/s speed=0.0927x elapsed=0:00:11.86    \nframe=   70 fps=5.6 q=47.0 size=       0KiB time=00:00:01.15 bitrate=   3.3kbits/s speed=0.0926x elapsed=0:00:12.41    \nframe=   72 fps=5.5 q=47.0 size=       0KiB time=00:00:01.20 bitrate=   3.2kbits/s speed=0.0922x elapsed=0:00:13.02    \nframe=   76 fps=5.6 q=46.0 size=       0KiB time=00:00:01.26 bitrate=   3.0kbits/s speed=0.093x elapsed=0:00:13.62    \nframe=   79 fps=5.6 q=47.0 size=       0KiB time=00:00:01.31 bitrate=   2.9kbits/s speed=0.0929x elapsed=0:00:14.17    \nframe=   82 fps=5.5 q=48.0 size=       0KiB time=00:00:01.36 bitrate=   2.8kbits/s speed=0.0925x elapsed=0:00:14.77    \nframe=   85 fps=5.6 q=40.0 size=       0KiB time=00:00:01.41 bitrate=   2.7kbits/s speed=0.0926x elapsed=0:00:15.29    \nframe=   88 fps=5.6 q=44.0 size=       0KiB time=00:00:01.46 bitrate=   2.6kbits/s speed=0.0925x elapsed=0:00:15.84    \nframe=   91 fps=5.5 q=45.0 size=       0KiB time=00:00:01.51 bitrate=   2.5kbits/s speed=0.0923x elapsed=0:00:16.43    \nframe=   94 fps=5.5 q=46.0 size=       0KiB time=00:00:01.56 bitrate=   2.5kbits/s speed=0.0922x elapsed=0:00:16.98    \nframe=   96 fps=5.5 q=46.0 size=       0KiB time=00:00:01.60 bitrate=   2.4kbits/s speed=0.0912x elapsed=0:00:17.54    \nframe=  100 fps=5.5 q=46.0 size=       0KiB time=00:00:01.65 bitrate=   2.3kbits/s speed=0.0913x elapsed=0:00:18.06    \nframe=  102 fps=5.4 q=47.0 size=       0KiB time=00:00:01.70 bitrate=   2.3kbits/s speed=0.0908x elapsed=0:00:18.72    \nframe=  106 fps=5.5 q=47.0 size=       0KiB time=00:00:01.76 bitrate=   2.2kbits/s speed=0.0917x elapsed=0:00:19.25    \nframe=  109 fps=5.5 q=40.0 size=       0KiB time=00:00:01.81 bitrate=   2.1kbits/s speed=0.0917x elapsed=0:00:19.81    \nframe=  113 fps=5.6 q=45.0 size=       0KiB time=00:00:01.88 bitrate=   2.0kbits/s speed=0.0926x elapsed=0:00:20.34    \nframe=  116 fps=5.5 q=46.0 size=       0KiB time=00:00:01.93 bitrate=   2.0kbits/s speed=0.0924x elapsed=0:00:20.92    \nframe=  119 fps=5.5 q=45.0 size=       0KiB time=00:00:01.98 bitrate=   1.9kbits/s speed=0.0923x elapsed=0:00:21.48    \nframe=  122 fps=5.5 q=46.0 size=       0KiB time=00:00:02.03 bitrate=   1.9kbits/s speed=0.0923x elapsed=0:00:22.04    \nframe=  126 fps=5.6 q=45.0 size=       0KiB time=00:00:02.10 bitrate=   1.8kbits/s speed=0.0929x elapsed=0:00:22.60    \nframe=  128 fps=5.5 q=46.0 size=       0KiB time=00:00:02.13 bitrate=   1.8kbits/s speed=0.092x elapsed=0:00:23.18    \nframe=  132 fps=5.5 q=45.0 size=     768KiB time=00:00:02.20 bitrate=2859.8kbits/s speed=0.0925x elapsed=0:00:23.78    \nframe=  136 fps=5.6 q=45.0 size=     768KiB time=00:00:02.26 bitrate=2775.6kbits/s speed=0.0931x elapsed=0:00:24.33    \nframe=  139 fps=5.6 q=44.0 size=     768KiB time=00:00:02.31 bitrate=2715.7kbits/s speed=0.093x elapsed=0:00:24.92    \nframe=  143 fps=5.6 q=44.0 size=     768KiB time=00:00:02.38 bitrate=2639.8kbits/s speed=0.0934x elapsed=0:00:25.52    \nframe=  147 fps=5.6 q=46.0 size=     768KiB time=00:00:02.45 bitrate=2567.9kbits/s speed=0.0941x elapsed=0:00:26.04    \nframe=  151 fps=5.7 q=46.0 size=     768KiB time=00:00:02.51 bitrate=2499.9kbits/s speed=0.0945x elapsed=0:00:26.61    \nframe=  154 fps=5.7 q=41.0 size=     768KiB time=00:00:02.56 bitrate=2451.2kbits/s speed=0.0945x elapsed=0:00:27.15    \nframe=  158 fps=5.7 q=43.0 size=     768KiB time=00:00:02.61 bitrate=2404.4kbits/s speed=0.0944x elapsed=0:00:27.73    \nframe=  161 fps=5.7 q=43.0 size=     768KiB time=00:00:02.68 bitrate=2344.6kbits/s speed=0.0948x elapsed=0:00:28.29    \nframe=  163 fps=5.7 q=43.0 size=     768KiB time=00:00:02.71 bitrate=2315.9kbits/s speed=0.0942x elapsed=0:00:28.82    \nframe=  168 fps=5.7 q=44.0 size=     768KiB time=00:00:02.80 bitrate=2246.9kbits/s speed=0.0954x elapsed=0:00:29.36    \nframe=  173 fps=5.8 q=45.0 size=     768KiB time=00:00:02.88 bitrate=2182.0kbits/s speed=0.0963x elapsed=0:00:29.93    \nframe=  176 fps=5.8 q=38.0 size=     768KiB time=00:00:02.93 bitrate=2144.8kbits/s speed=0.0962x elapsed=0:00:30.48    \nframe=  180 fps=5.8 q=41.0 size=     768KiB time=00:00:03.00 bitrate=2097.2kbits/s speed=0.0967x elapsed=0:00:31.00    \nframe=  184 fps=5.8 q=43.0 size=     768KiB time=00:00:03.06 bitrate=2051.6kbits/s speed=0.0972x elapsed=0:00:31.56    \nframe=  187 fps=5.8 q=42.0 size=     768KiB time=00:00:03.11 bitrate=2018.6kbits/s speed=0.097x elapsed=0:00:32.11    \nframe=  193 fps=5.9 q=42.0 size=     768KiB time=00:00:03.20 bitrate=1966.1kbits/s speed=0.098x elapsed=0:00:32.64    \nframe=  197 fps=5.9 q=42.0 size=     768KiB time=00:00:03.28 bitrate=1916.2kbits/s speed=0.0989x elapsed=0:00:33.18    \nframe=  199 fps=5.9 q=42.0 size=     768KiB time=00:00:03.31 bitrate=1896.9kbits/s speed=0.0984x elapsed=0:00:33.71    \nframe=  203 fps=5.9 q=41.0 size=     768KiB time=00:00:03.38 bitrate=1859.5kbits/s speed=0.0987x elapsed=0:00:34.28    \nframe=  207 fps=5.9 q=41.0 size=     768KiB time=00:00:03.45 bitrate=1823.6kbits/s speed=0.099x elapsed=0:00:34.86    \nframe=  211 fps=6.0 q=41.0 size=     768KiB time=00:00:03.51 bitrate=1789.0kbits/s speed=0.0993x elapsed=0:00:35.42    \nframe=  214 fps=5.9 q=40.0 size=     768KiB time=00:00:03.56 bitrate=1764.0kbits/s speed=0.0987x elapsed=0:00:36.13    \nframe=  218 fps=5.9 q=42.0 size=     768KiB time=00:00:03.61 bitrate=1739.6kbits/s speed=0.0986x elapsed=0:00:36.69    \nframe=  221 fps=5.9 q=42.0 size=     768KiB time=00:00:03.68 bitrate=1708.1kbits/s speed=0.0986x elapsed=0:00:37.36    \nframe=  223 fps=5.9 q=42.0 size=     768KiB time=00:00:03.71 bitrate=1692.8kbits/s speed=0.098x elapsed=0:00:37.91    \nframe=  227 fps=5.9 q=41.0 size=     768KiB time=00:00:03.76 bitrate=1670.3kbits/s speed=0.0978x elapsed=0:00:38.51    \nframe=  231 fps=5.9 q=42.0 size=     768KiB time=00:00:03.85 bitrate=1634.1kbits/s speed=0.0984x elapsed=0:00:39.13    \nframe=  234 fps=5.9 q=42.0 size=     768KiB time=00:00:03.90 bitrate=1613.2kbits/s speed=0.0983x elapsed=0:00:39.68    \nframe=  237 fps=5.9 q=44.0 size=     768KiB time=00:00:03.95 bitrate=1592.8kbits/s speed=0.0982x elapsed=0:00:40.22    \nframe=  241 fps=5.9 q=43.0 size=     768KiB time=00:00:04.01 bitrate=1566.3kbits/s speed=0.0984x elapsed=0:00:40.81    \nframe=  245 fps=5.9 q=43.0 size=     768KiB time=00:00:04.08 bitrate=1540.8kbits/s speed=0.0986x elapsed=0:00:41.42    \nframe=  248 fps=5.9 q=42.0 size=     768KiB time=00:00:04.13 bitrate=1522.1kbits/s speed=0.0982x elapsed=0:00:42.08    \nframe=  251 fps=5.9 q=44.0 size=     768KiB time=00:00:04.18 bitrate=1503.9kbits/s speed=0.0981x elapsed=0:00:42.65    \nframe=  254 fps=5.9 q=43.0 size=     768KiB time=00:00:04.23 bitrate=1486.2kbits/s speed=0.098x elapsed=0:00:43.18    \nframe=  256 fps=5.9 q=44.0 size=     768KiB time=00:00:04.26 bitrate=1474.6kbits/s speed=0.0975x elapsed=0:00:43.74    \nframe=  260 fps=5.9 q=44.0 size=    1280KiB time=00:00:04.33 bitrate=2419.8kbits/s speed=0.0977x elapsed=0:00:44.33    \nframe=  264 fps=5.9 q=44.0 size=    1280KiB time=00:00:04.40 bitrate=2383.1kbits/s speed=0.0981x elapsed=0:00:44.87    \nframe=  268 fps=5.9 q=44.0 size=    1280KiB time=00:00:04.45 bitrate=2356.4kbits/s speed=0.098x elapsed=0:00:45.40    \nframe=  270 fps=5.9 q=44.0 size=    1280KiB time=00:00:04.50 bitrate=2330.2kbits/s speed=0.0979x elapsed=0:00:45.95    \nframe=  275 fps=5.9 q=43.0 size=    1280KiB time=00:00:04.56 bitrate=2296.2kbits/s speed=0.0982x elapsed=0:00:46.50    \nframe=  279 fps=5.9 q=43.0 size=    1280KiB time=00:00:04.65 bitrate=2255.0kbits/s speed=0.0989x elapsed=0:00:47.01    \nframe=  283 fps=6.0 q=43.0 size=    1280KiB time=00:00:04.71 bitrate=2223.1kbits/s speed=0.0992x elapsed=0:00:47.53    \nframe=  288 fps=6.0 q=43.0 size=    1280KiB time=00:00:04.80 bitrate=2184.5kbits/s speed=0.0999x elapsed=0:00:48.04    \nframe=  292 fps=6.0 q=43.0 size=    1280KiB time=00:00:04.86 bitrate=2154.6kbits/s speed= 0.1x elapsed=0:00:48.56    \nframe=  298 fps=6.1 q=43.0 size=    1280KiB time=00:00:04.96 bitrate=2111.2kbits/s speed=0.101x elapsed=0:00:49.09    \nframe=  303 fps=6.1 q=45.0 size=    1280KiB time=00:00:05.05 bitrate=2076.4kbits/s speed=0.102x elapsed=0:00:49.63    \nframe=  307 fps=6.1 q=42.0 size=    1280KiB time=00:00:05.11 bitrate=2049.3kbits/s speed=0.102x elapsed=0:00:50.15    \nframe=  312 fps=6.2 q=43.0 size=    1280KiB time=00:00:05.20 bitrate=2016.5kbits/s speed=0.103x elapsed=0:00:50.68    \nframe=  316 fps=6.2 q=44.0 size=    1280KiB time=00:00:05.26 bitrate=1991.0kbits/s speed=0.103x elapsed=0:00:51.22    \nframe=  321 fps=6.2 q=43.0 size=    1280KiB time=00:00:05.35 bitrate=1960.0kbits/s speed=0.103x elapsed=0:00:51.73    \nframe=  325 fps=6.2 q=44.0 size=    1280KiB time=00:00:05.41 bitrate=1935.8kbits/s speed=0.104x elapsed=0:00:52.24    \nframe=  329 fps=6.2 q=34.0 size=    1280KiB time=00:00:05.48 bitrate=1912.3kbits/s speed=0.104x elapsed=0:00:52.76    \nframe=  336 fps=6.3 q=46.0 size=    1280KiB time=00:00:05.60 bitrate=1872.5kbits/s speed=0.105x elapsed=0:00:53.29    \nframe=  340 fps=6.3 q=47.0 size=    1280KiB time=00:00:05.66 bitrate=1850.4kbits/s speed=0.105x elapsed=0:00:53.80    \nframe=  346 fps=6.4 q=46.0 size=    1280KiB time=00:00:05.76 bitrate=1818.3kbits/s speed=0.106x elapsed=0:00:54.33    \nframe=  351 fps=6.4 q=47.0 size=    1280KiB time=00:00:05.85 bitrate=1792.4kbits/s speed=0.107x elapsed=0:00:54.84    \nframe=  355 fps=6.4 q=44.0 size=    1280KiB time=00:00:05.91 bitrate=1772.2kbits/s speed=0.107x elapsed=0:00:55.35    \nframe=  361 fps=6.5 q=45.0 size=    1280KiB time=00:00:06.01 bitrate=1742.8kbits/s speed=0.108x elapsed=0:00:55.87    \nframe=  365 fps=6.5 q=37.0 size=    1280KiB time=00:00:06.08 bitrate=1723.7kbits/s speed=0.108x elapsed=0:00:56.40    \nframe=  371 fps=6.5 q=46.0 size=    1280KiB time=00:00:06.18 bitrate=1695.8kbits/s speed=0.109x elapsed=0:00:56.93    \nframe=  375 fps=6.5 q=36.0 size=    1280KiB time=00:00:06.25 bitrate=1677.7kbits/s speed=0.109x elapsed=0:00:57.45    \nframe=  380 fps=6.6 q=44.0 size=    1280KiB time=00:00:06.33 bitrate=1655.6kbits/s speed=0.109x elapsed=0:00:57.97    \nframe=  384 fps=6.6 q=45.0 size=    1280KiB time=00:00:06.40 bitrate=1638.4kbits/s speed=0.109x elapsed=0:00:58.49    \nframe=  387 fps=6.6 q=42.0 size=    2048KiB time=00:00:06.45 bitrate=2601.1kbits/s speed=0.109x elapsed=0:00:59.03    \nframe=  392 fps=6.6 q=44.0 size=    2048KiB time=00:00:06.53 bitrate=2567.9kbits/s speed=0.11x elapsed=0:00:59.55    \nframe=  396 fps=6.6 q=45.0 size=    2048KiB time=00:00:06.60 bitrate=2542.0kbits/s speed=0.11x elapsed=0:01:00.07    \nframe=  401 fps=6.6 q=45.0 size=    2048KiB time=00:00:06.68 bitrate=2510.3kbits/s speed=0.11x elapsed=0:01:00.59    \nframe=  406 fps=6.6 q=45.0 size=    2048KiB time=00:00:06.76 bitrate=2479.4kbits/s speed=0.111x elapsed=0:01:01.13    \nframe=  411 fps=6.7 q=44.0 size=    2048KiB time=00:00:06.85 bitrate=2449.2kbits/s speed=0.111x elapsed=0:01:01.65    \nframe=  415 fps=6.7 q=44.0 size=    2048KiB time=00:00:06.91 bitrate=2425.6kbits/s speed=0.111x elapsed=0:01:02.16    \nframe=  419 fps=6.7 q=45.0 size=    2048KiB time=00:00:06.98 bitrate=2402.5kbits/s speed=0.111x elapsed=0:01:02.70    \nframe=  423 fps=6.7 q=43.0 size=    2048KiB time=00:00:07.05 bitrate=2379.7kbits/s speed=0.112x elapsed=0:01:03.22    \nframe=  427 fps=6.7 q=43.0 size=    2048KiB time=00:00:07.11 bitrate=2357.5kbits/s speed=0.112x elapsed=0:01:03.74    \nframe=  432 fps=6.7 q=44.0 size=    2048KiB time=00:00:07.18 bitrate=2335.6kbits/s speed=0.112x elapsed=0:01:04.26    \nframe=  435 fps=6.7 q=42.0 size=    2048KiB time=00:00:07.25 bitrate=2314.1kbits/s speed=0.112x elapsed=0:01:04.79    \nframe=  439 fps=6.7 q=44.0 size=    2048KiB time=00:00:07.31 bitrate=2293.0kbits/s speed=0.112x elapsed=0:01:05.31    \nframe=  443 fps=6.7 q=44.0 size=    2048KiB time=00:00:07.38 bitrate=2272.3kbits/s speed=0.112x elapsed=0:01:05.83    \nframe=  447 fps=6.7 q=43.0 size=    2048KiB time=00:00:07.45 bitrate=2252.0kbits/s speed=0.112x elapsed=0:01:06.35    \nframe=  452 fps=6.8 q=44.0 size=    2048KiB time=00:00:07.53 bitrate=2227.1kbits/s speed=0.113x elapsed=0:01:06.86    \nframe=  456 fps=6.8 q=45.0 size=    2048KiB time=00:00:07.60 bitrate=2207.5kbits/s speed=0.113x elapsed=0:01:07.39    \nframe=  461 fps=6.8 q=44.0 size=    2048KiB time=00:00:07.68 bitrate=2183.6kbits/s speed=0.113x elapsed=0:01:07.92    \nframe=  466 fps=6.8 q=46.0 size=    2048KiB time=00:00:07.76 bitrate=2160.2kbits/s speed=0.113x elapsed=0:01:08.44    \nframe=  470 fps=6.8 q=46.0 size=    2048KiB time=00:00:07.83 bitrate=2141.8kbits/s speed=0.114x elapsed=0:01:08.96    \nframe=  475 fps=6.8 q=46.0 size=    2048KiB time=00:00:07.91 bitrate=2119.2kbits/s speed=0.114x elapsed=0:01:09.49    \nframe=  480 fps=6.9 q=46.0 size=    2048KiB time=00:00:08.00 bitrate=2097.2kbits/s speed=0.114x elapsed=0:01:10.00    \nframe=  486 fps=6.9 q=45.0 size=    2048KiB time=00:00:08.10 bitrate=2071.3kbits/s speed=0.115x elapsed=0:01:10.51    \nframe=  491 fps=6.9 q=46.0 size=    2048KiB time=00:00:08.18 bitrate=2050.2kbits/s speed=0.115x elapsed=0:01:11.03    \nframe=  496 fps=6.9 q=45.0 size=    2048KiB time=00:00:08.26 bitrate=2029.5kbits/s speed=0.116x elapsed=0:01:11.55    \nframe=  502 fps=7.0 q=46.0 size=    2048KiB time=00:00:08.36 bitrate=2005.2kbits/s speed=0.116x elapsed=0:01:12.06    \nframe=  507 fps=7.0 q=45.0 size=    2048KiB time=00:00:08.45 bitrate=1985.5kbits/s speed=0.116x elapsed=0:01:12.59    \nframe=  512 fps=7.0 q=46.0 size=    2048KiB time=00:00:08.53 bitrate=1966.1kbits/s speed=0.117x elapsed=0:01:13.14    \nframe=  515 fps=7.0 q=45.0 size=    2816KiB time=00:00:08.58 bitrate=2687.6kbits/s speed=0.117x elapsed=0:01:13.67    \nframe=  521 fps=7.0 q=46.0 size=    2816KiB time=00:00:08.68 bitrate=2656.7kbits/s speed=0.117x elapsed=0:01:14.19    \nframe=  526 fps=7.0 q=46.0 size=    2816KiB time=00:00:08.76 bitrate=2631.4kbits/s speed=0.117x elapsed=0:01:14.70    \nframe=  532 fps=7.1 q=47.0 size=    2816KiB time=00:00:08.86 bitrate=2601.7kbits/s speed=0.118x elapsed=0:01:15.23    \nframe=  536 fps=7.1 q=46.0 size=    2816KiB time=00:00:08.93 bitrate=2582.3kbits/s speed=0.118x elapsed=0:01:15.75    \nframe=  541 fps=7.1 q=46.0 size=    2816KiB time=00:00:09.01 bitrate=2558.4kbits/s speed=0.118x elapsed=0:01:16.28    \nframe=  546 fps=7.1 q=46.0 size=    2816KiB time=00:00:09.08 bitrate=2539.7kbits/s speed=0.118x elapsed=0:01:16.81    \nframe=  550 fps=7.1 q=44.0 size=    2816KiB time=00:00:09.16 bitrate=2516.6kbits/s speed=0.118x elapsed=0:01:17.35    \nframe=  555 fps=7.1 q=44.0 size=    2816KiB time=00:00:09.25 bitrate=2493.9kbits/s speed=0.119x elapsed=0:01:17.87    \nframe=  558 fps=7.1 q=45.0 size=    2816KiB time=00:00:09.30 bitrate=2480.5kbits/s speed=0.119x elapsed=0:01:18.40    \nframe=  564 fps=7.1 q=44.0 size=    2816KiB time=00:00:09.40 bitrate=2454.1kbits/s speed=0.119x elapsed=0:01:18.92    \nframe=  569 fps=7.2 q=44.0 size=    2816KiB time=00:00:09.48 bitrate=2432.5kbits/s speed=0.119x elapsed=0:01:19.44    \nframe=  573 fps=7.2 q=43.0 size=    2816KiB time=00:00:09.55 bitrate=2415.6kbits/s speed=0.119x elapsed=0:01:19.98    \nframe=  576 fps=7.2 q=44.0 size=    2816KiB time=00:00:09.60 bitrate=2403.0kbits/s speed=0.119x elapsed=0:01:20.52    \nframe=  576 fps=7.1 q=44.0 size=    2816KiB time=00:00:09.60 bitrate=2403.0kbits/s speed=0.118x elapsed=0:01:21.04    \nframe=  576 fps=7.1 q=44.0 size=    2816KiB time=00:00:09.60 bitrate=2403.0kbits/s speed=0.118x elapsed=0:01:21.59    \nframe=  576 fps=7.0 q=44.0 size=    2816KiB time=00:00:09.60 bitrate=2403.0kbits/s speed=0.117x elapsed=0:01:22.15    \nframe=  576 fps=7.0 q=44.0 size=    2816KiB time=00:00:09.60 bitrate=2403.0kbits/s speed=0.116x elapsed=0:01:22.68    \n[out#0/webm @ 00000196963d9b80] video:3659KiB audio:0KiB subtitle:0KiB other streams:0KiB global headers:0KiB muxing overhead: 0.130153%\nframe=  600 fps=7.2 q=44.0 Lsize=    3664KiB time=00:00:10.00 bitrate=3001.6kbits/s speed=0.12x elapsed=0:01:23.17    \n",
  "seconds": 83.38046169281006,
  "probe_out": {}
}